<?xml version="1.0" encoding="utf-8"?>
<!-- Generator: Adobe Illustrator 23.0.5, SVG Export Plug-In . SVG Version: 6.00 Build 0)  -->
<svg version="1.1" id="레이어_1" xmlns="http://www.w3.org/2000/svg" xmlns:xlink="http://www.w3.org/1999/xlink" x="0px"
	 y="0px" viewBox="0 0 133 133" style="enable-background:new 0 0 133 133;" xml:space="preserve">
<style type="text/css">
	.st0{fill:#FFFFFF;}
	.st1{fill:none;}
	.st2{fill:#FF9F2C;}
	.st3{fill:#FFD833;}
</style>
<path class="st0" d="M118.4,124.5c0,0.3,0,0.7,0,1.1c-12.9,0-25.6,0-38.5,0c2.5-4.1,2.6-8.7,2.4-13.1c0.6-0.2,1.2-0.4,1.6-0.7
	c1.3-0.7,1.9-2,1.7-3.4c-0.2-1.2-1.4-2.5-2.6-2.7c-0.6-0.1-0.6-0.4-0.6-0.8c-0.1-5.1,1.2-9.8,4.4-13.9c3.9-5.1,5.5-11,5.1-17.4
	c-0.5-6.6-3.1-12.2-7.9-16.7c-3.3-3.1-7.2-5.3-11.7-6.3c-3.1-0.7-6.3-0.7-9.4-0.3c-5.7,0.6-10.4,3.2-14.5,7.2
	c-3.9,3.9-6.3,8.4-7.3,13.9c-0.9,5.1-0.4,10.1,1.7,14.9c0.8,1.9,2,3.6,3.2,5.3c2.1,3,3.5,6.2,3.9,9.8c0.1,1.3,0,2.7,0,4.1
	c-2.5,1-3.3,2.1-3.1,4.1c0.2,1.5,1.3,2.5,3.1,2.9c-0.1,4.5-0.2,9,2.2,13.2c-12.7,0-25.2,0-37.9,0c0-0.3,0-0.7,0-1
	c0-20.1,0-40.2,0-60.3c0-0.7,0.2-1.1,0.8-1.5c6.5-3.8,13-7.7,19.5-11.5c1.1-0.6,1.6-1.4,1.5-2.7c-0.1-6,0-12,0-18
	c0-0.6,0.2-1,0.7-1.3c9.7-6.7,19.4-13.5,29-20.2c0.4-0.3,0.7-0.3,1.1,0c9.6,6.8,19.3,13.5,28.9,20.2c0.6,0.4,0.8,0.8,0.8,1.5
	c0,6,0,12.1,0,18.1c0,1.1,0.4,1.8,1.3,2.3c6.4,3.8,12.8,7.6,19.2,11.4c0.2,0.1,0.3,0.2,0.5,0.3c0.7,0.3,0.9,0.8,0.9,1.5
	C118.3,84.5,118.4,104.5,118.4,124.5z"/>
<g>
	<path class="st1" d="M85,72.8c-1.4-8.3-8.5-15.9-17.7-16.3c-3.4-0.2-6.7,0.4-9.6,2.1c-5.8,3.3-9.2,8.3-10,15
		c-0.6,4.8,0.4,9.1,3.2,13c0.8,1.2,1.7,2.4,2.5,3.7c2.5,4.3,3.3,8.9,3.1,13.8c0,0.5,0,1,0,1.6c0.9,0,1.7,0,2.4,0
		c0.7,0,0.8-0.2,0.8-0.9c0-6.2,0-12.3,0-18.5c0-0.6-0.2-0.9-0.6-1.2c-1.1-0.8-1.5-2.4-1.1-3.7c0.5-1.4,1.4-2,3-2c3.6,0,7.2,0,10.7,0
		c1.5,0,2.5,0.8,2.9,2.2c0.4,1.4,0,2.8-1.2,3.5c-0.6,0.3-0.7,0.7-0.7,1.3c0,1.6,0,3.2,0,4.8c0,4.6,0,9.1,0,13.7
		c0,0.5,0.1,0.8,0.7,0.8c0.6,0,1.3,0,2,0c0.6,0,0.8-0.2,0.8-0.8c0-1.6,0-3.2,0.2-4.8c0.4-4.7,2.1-8.9,4.9-12.6
		C84.6,83.1,85.9,78.3,85,72.8z"/>
	<path class="st1" d="M64.8,85.3c0,6.8,0,13.5,0,20.3c0.9,0,1.8,0,2.6,0c0-6.8,0-13.5,0-20.3C66.5,85.3,65.7,85.3,64.8,85.3z"/>
	<path class="st1" d="M56.3,112.3c0,0.8,0.1,1.5,0,2.2c-0.1,0.8,0.2,1.1,1.1,1.1c5.9,0,11.7,0,17.6,0c0.2,0,0.4,0.1,0.6,0
		c0.2-0.1,0.5-0.3,0.5-0.5c0.1-0.9,0-1.8,0-2.8C69.5,112.3,63,112.3,56.3,112.3z"/>
	<path class="st1" d="M57.2,121.4c0.2,0.3,0.4,0.7,0.7,1c1.5,1.9,3.3,3.3,5.9,3.2c1.4,0,2.8-0.1,4.2,0c2.2,0.2,3.9-0.7,5.4-2
		c0.7-0.7,1.3-1.5,2-2.5c-6.3,0-12.2,0-18.2,0C57.2,121.3,57.2,121.4,57.2,121.4z"/>
	<path class="st1" d="M66.4,28.4c-2.9,0-5.3,2.3-5.3,5.2c0,2.9,2.3,5.3,5.2,5.3c2.9,0,5.3-2.3,5.3-5.2
		C71.6,30.9,69.3,28.5,66.4,28.4z"/>
	<path class="st1" d="M117.8,62.9c-0.2-0.1-0.4-0.2-0.5-0.3c-6.4-3.8-12.8-7.6-19.2-11.4c-0.9-0.5-1.3-1.2-1.3-2.3
		c0-6,0-12.1,0-18.1c0-0.7-0.2-1.1-0.8-1.5c-9.7-6.7-19.3-13.5-28.9-20.2c-0.5-0.3-0.7-0.3-1.1,0c-9.7,6.8-19.3,13.5-29,20.2
		c-0.5,0.4-0.7,0.7-0.7,1.3c0,6,0,12,0,18c0,1.3-0.5,2.1-1.5,2.7c-6.5,3.8-13,7.7-19.5,11.5c-0.6,0.4-0.8,0.8-0.8,1.5
		c0,20.1,0,40.2,0,60.3c0,0.3,0,0.6,0,1c12.6,0,25.2,0,37.9,0c-2.5-4.2-2.3-8.7-2.2-13.2c-1.9-0.3-3-1.3-3.1-2.9
		c-0.2-2.1,0.6-3.1,3.1-4.1c0-1.4,0.1-2.7,0-4.1c-0.4-3.6-1.8-6.9-3.9-9.8c-1.2-1.7-2.4-3.4-3.2-5.3c-2.2-4.7-2.6-9.7-1.7-14.9
		c1-5.4,3.4-10,7.3-13.9c4-4,8.8-6.6,14.5-7.2c3.2-0.3,6.3-0.3,9.4,0.3c4.5,0.9,8.4,3.1,11.7,6.3c4.8,4.5,7.4,10.2,7.9,16.7
		c0.5,6.4-1.1,12.2-5.1,17.4c-3.2,4.1-4.5,8.8-4.4,13.9c0,0.5,0.1,0.8,0.6,0.8c1.2,0.2,2.4,1.4,2.6,2.7c0.2,1.4-0.4,2.7-1.7,3.4
		c-0.5,0.3-1,0.4-1.6,0.7c0.2,4.5,0.2,9-2.4,13.1c12.9,0,25.7,0,38.5,0c0-0.4,0-0.8,0-1.1c0-20,0-40,0-60
		C118.7,63.7,118.5,63.2,117.8,62.9z M66.4,46C59.5,46,54,40.5,54,33.6c0-6.8,5.6-12.3,12.4-12.3c6.8,0,12.3,5.6,12.3,12.3
		C78.7,40.5,73.1,46,66.4,46z"/>
	<path class="st2" d="M130.6,62.5c-0.5-0.4-1.1-0.7-1.7-1c-8.3-4.9-16.6-9.8-24.9-14.7c-0.6-0.3-0.8-0.7-0.7-1.3c0-2.3,0-4.7,0-7
		c0-1.3,0-2.5,0-3.8c1,0.1,1.9,0.2,2.8,0.3c1.1,0.1,1.9-0.4,2.6-1.3c1.3-1.7,0.8-3.6-1.2-5c-13-9.3-26-18.5-39-27.8
		c-1.6-1.1-2.7-1.1-4.3,0c-2,1.4-4,2.9-6.1,4.3c-7.7,5.5-15.3,10.9-23,16.4c-3.4,2.4-6.8,4.8-10.2,7.2c-1.3,0.9-1.9,2.7-1.4,4.1
		c0.5,1.4,1.7,2.1,3.4,2c0.7,0,1.3-0.2,2-0.2c0,0.1,0.1,0.2,0.1,0.3c0,3.6,0,7.3,0,10.9c0,0.3-0.3,0.7-0.6,0.8
		c-4.7,2.9-9.5,5.7-14.3,8.6c-3.9,2.4-7.8,4.7-11.8,7.1c-1.4,0.8-2,2.4-1.5,3.8c0.5,1.6,1.6,2.4,3.3,2.3c0.9,0,1.8-0.1,2.8-0.2
		c0,0.4,0,0.6,0,0.9c0,9.2,0,18.4,0,27.6c0,10.8,0,21.5,0,32.3c0,2.4,1.6,3.9,4,3.9c28.3,0,56.7,0,85,0c8.7,0,17.5,0,26.2,0
		c1.9,0,3.1-1,3.5-2.8c0.2-0.8,0.1-1.6,0.1-2.4c0-19.6,0-39.1,0-58.7c0-0.3,0-0.5,0-0.8c0.9,0.1,1.7,0.2,2.5,0.2
		c1.7,0,2.9-0.8,3.4-2.3C132.5,64.8,131.9,63.4,130.6,62.5z M73.3,123.6c-1.5,1.3-3.2,2.2-5.4,2c-1.4-0.1-2.8,0-4.2,0
		c-2.6,0-4.4-1.3-5.9-3.2c-0.3-0.3-0.5-0.7-0.7-1c0,0,0-0.1,0-0.3c6,0,11.9,0,18.2,0C74.6,122.1,74,122.9,73.3,123.6z M76.1,115.1
		c0,0.2-0.3,0.4-0.5,0.5c-0.2,0.1-0.4,0-0.6,0c-5.9,0-11.7,0-17.6,0c-0.9,0-1.1-0.3-1.1-1.1c0.1-0.7,0-1.4,0-2.2
		c6.6,0,13.2,0,19.8,0C76.1,113.3,76.2,114.2,76.1,115.1z M64.8,105.6c0-6.8,0-13.5,0-20.3c0.9,0,1.7,0,2.6,0c0,6.8,0,13.5,0,20.3
		C66.6,105.6,65.7,105.6,64.8,105.6z M76.2,104.9c0,0.6-0.2,0.9-0.8,0.8c-0.6,0-1.3,0-2,0c-0.6,0-0.7-0.2-0.7-0.8
		c0-4.6,0-9.1,0-13.7c0-1.6,0-3.2,0-4.8c0-0.6,0.1-1,0.7-1.3c1.2-0.7,1.6-2.1,1.2-3.5c-0.4-1.4-1.5-2.2-2.9-2.2c-3.6,0-7.2,0-10.7,0
		c-1.5,0-2.5,0.7-3,2c-0.4,1.3,0,2.9,1.1,3.7c0.5,0.3,0.6,0.7,0.6,1.2c0,6.2,0,12.3,0,18.5c0,0.6-0.1,0.9-0.8,0.9
		c-0.8-0.1-1.5,0-2.4,0c0-0.6,0-1.1,0-1.6c0.2-4.9-0.6-9.5-3.1-13.8c-0.8-1.3-1.6-2.5-2.5-3.7c-2.8-3.9-3.8-8.3-3.2-13
		c0.8-6.7,4.2-11.7,10-15c3-1.7,6.2-2.2,9.6-2.1c9.2,0.4,16.3,8,17.7,16.3c0.9,5.4-0.3,10.3-3.7,14.7c-2.9,3.7-4.5,7.9-4.9,12.6
		C76.2,101.7,76.2,103.3,76.2,104.9z M118.6,124.5c0,0.3,0,0.7,0,1.1c-12.9,0-25.6,0-38.5,0c2.5-4.1,2.6-8.7,2.4-13.1
		c0.6-0.2,1.2-0.4,1.6-0.7c1.3-0.7,1.9-2,1.7-3.4c-0.2-1.2-1.4-2.5-2.6-2.7c-0.6-0.1-0.6-0.4-0.6-0.8c-0.1-5.1,1.2-9.8,4.4-13.9
		c3.9-5.1,5.5-11,5.1-17.4C91.5,67,88.8,61.4,84,56.9c-3.3-3.1-7.2-5.3-11.7-6.3c-3.1-0.7-6.3-0.7-9.4-0.3
		c-5.7,0.6-10.4,3.2-14.5,7.2c-3.9,3.9-6.3,8.4-7.3,13.9c-0.9,5.1-0.4,10.1,1.7,14.9c0.8,1.9,2,3.6,3.2,5.3c2.1,3,3.5,6.2,3.9,9.8
		c0.1,1.3,0,2.7,0,4.1c-2.5,1-3.3,2.1-3.1,4.1c0.2,1.5,1.3,2.5,3.1,2.9c-0.1,4.5-0.2,9,2.2,13.2c-12.7,0-25.2,0-37.9,0
		c0-0.3,0-0.7,0-1c0-20.1,0-40.2,0-60.3c0-0.7,0.2-1.1,0.8-1.5c6.5-3.8,13-7.7,19.5-11.5c1.1-0.6,1.6-1.4,1.5-2.7c-0.1-6,0-12,0-18
		c0-0.6,0.2-1,0.7-1.3c9.7-6.7,19.4-13.5,29-20.2c0.4-0.3,0.7-0.3,1.1,0c9.6,6.8,19.3,13.5,28.9,20.2c0.6,0.4,0.8,0.8,0.8,1.5
		c0,6,0,12.1,0,18.1c0,1.1,0.4,1.8,1.3,2.3c6.4,3.8,12.8,7.6,19.2,11.4c0.2,0.1,0.3,0.2,0.5,0.3c0.7,0.3,0.9,0.8,0.9,1.5
		C118.6,84.5,118.6,104.5,118.6,124.5z"/>
	<path class="st2" d="M66.4,21.4c-6.8,0-12.3,5.5-12.4,12.3C54,40.5,59.5,46,66.4,46c6.8,0,12.3-5.5,12.3-12.3
		C78.7,26.9,73.1,21.4,66.4,21.4z M66.3,38.9c-2.9,0-5.2-2.4-5.2-5.3c0-2.9,2.4-5.2,5.3-5.2c2.9,0,5.2,2.4,5.2,5.3
		C71.6,36.6,69.2,39,66.3,38.9z"/>
</g>
<path class="st3" d="M56.4,105.7c0.9,0,1.7,0,2.4,0c0.7,0,0.8-0.2,0.8-0.9c0-6.2,0-12.3,0-18.5c0-0.6-0.2-0.9-0.6-1.2
	c-1.1-0.8-1.5-2.4-1.1-3.7c0.5-1.4,1.4-2,3-2c3.6,0,7.2,0,10.7,0c1.5,0,2.5,0.8,2.9,2.2c0.4,1.4,0,2.8-1.2,3.5
	c-0.6,0.3-0.7,0.7-0.7,1.3c0,1.6,0,3.2,0,4.8c0,4.6,0,9.1,0,13.7c0,0.5,0.1,0.8,0.7,0.8c0.6,0,1.3,0,2,0c0.6,0,0.8-0.2,0.8-0.8
	c0-1.6,0-3.2,0.2-4.8c0.4-4.7,2.1-8.9,4.9-12.6c3.4-4.4,4.6-9.3,3.7-14.7c-1.4-8.3-8.5-15.9-17.7-16.3c-3.4-0.2-6.7,0.4-9.6,2.1
	c-5.8,3.3-9.2,8.3-10,15c-0.6,4.8,0.4,9.1,3.2,13c0.8,1.2,1.7,2.4,2.5,3.7c2.5,4.3,3.3,8.9,3.1,13.8
	C56.4,104.6,56.4,105.1,56.4,105.7z"/>
<path class="st3" d="M56.3,112.3c0,0.8,0.1,1.5,0,2.2c-0.1,0.8,0.2,1.1,1.1,1.1c5.9,0,11.7,0,17.6,0c0.2,0,0.4,0.1,0.6,0
	c0.2-0.1,0.5-0.3,0.5-0.5c0.1-0.9,0-1.8,0-2.8C69.5,112.3,63,112.3,56.3,112.3z"/>
<path class="st3" d="M57.2,121.1c0,0.2,0,0.2,0,0.3c0.2,0.3,0.4,0.7,0.7,1c1.5,1.9,3.3,3.3,5.9,3.2c1.4,0,2.8-0.1,4.2,0
	c2.2,0.2,3.9-0.7,5.4-2c0.7-0.7,1.3-1.5,2-2.5C69.1,121.1,63.1,121.1,57.2,121.1z"/>
<path class="st3" d="M64.8,85.3c0,6.8,0,13.5,0,20.3c0.9,0,1.8,0,2.6,0c0-6.8,0-13.5,0-20.3C66.5,85.3,65.7,85.3,64.8,85.3z"/>
</svg>
